<svg xmlns="http://www.w3.org/2000/svg" width="160" height="40.8" class="flicon-FlLogo"><path class="flicon-text" d="m47.1 18.6.4-2.5v-.2c0-.1 0-.2-.1-.3-.1-.1-.2-.1-.3-.1h-1.9l.1-.6c0-.3.1-.6.2-.7.1-.2.2-.3.3-.3.1 0 .3-.1.5-.1h1c.2 0 .3 0 .4-.1.1-.1.2-.2.2-.4l.4-2.3v-.1c0-.1 0-.2-.1-.3-.1-.1-.2-.1-.3-.1-.3-.1-.7-.1-1-.2-.4 0-.7-.1-1-.1-.7 0-1.4.1-2 .2-.6.1-1.1.3-1.6.7-.5.3-.8.8-1.2 1.4-.3.6-.5 1.4-.7 2.4-.6 3.5-1 6.2-2 12.8v.1l-.3 1.9v.1c0 .1.1.2.1.3.1.1.2.1.3.1h3.8c.2 0 .3-.1.4-.2.1-.1.2-.2.2-.4l.3-1.9v-.1l1.4-8.6h1.9c.4.1.6-.1.6-.4zm9.4.5c.1-.1.2-.2.2-.3l.5-3v-.1c0-.1 0-.2-.1-.3-.1-.1-.2-.1-.3-.1h-.3c-.3 0-.6 0-1 .1s-.8.2-1.2.4c-.4.2-.8.5-1.2.9l.1-.6V16c0-.1 0-.2-.1-.3-.1-.1-.2-.1-.3-.1h-3.6c-.1 0-.3.1-.4.2-.1.1-.2.2-.2.4l-2.2 13.7v.1c0 .1 0 .2.1.3.1.1.2.1.3.1h3.8c.2 0 .3-.1.4-.2.1-.1.2-.2.2-.4l1.6-9.8c.4-.2.9-.4 1.4-.5.5-.1 1-.1 1.6-.1h.4l.3-.3zm12-2.2c-.4-.5-1-.9-1.7-1.2-.7-.3-1.5-.4-2.4-.4h-1c-.7.1-1.3.2-1.9.3-.9.3-1.7.6-2.3 1.2-.7.5-1.2 1.3-1.7 2.1-.4.9-.8 1.9-1 3.2l-.3 1.7c0 .2-.1.4-.1.7v.6c0 .7.1 1.4.3 1.9.2.6.5 1.1.9 1.5.4.4.8.8 1.3 1.1.5.3 1 .5 1.5.6.5.1 1.1.2 1.7.2h2l1.8-.3c.6-.1 1.2-.3 1.7-.4.2-.1.4-.1.4-.3.1-.1.1-.3.2-.5l.4-2.3v-.1c0-.1 0-.2-.1-.2-.1-.1-.2-.1-.3-.1h-.1c-.2 0-.4 0-.7.1-.3 0-.6 0-1 .1H63c-.4 0-.8 0-1.1-.1-.3-.1-.6-.2-.7-.4-.2-.2-.3-.5-.3-.9v-.4c0-.1 0-.3.1-.4h7.9c.2 0 .3-.1.4-.2.1-.1.2-.2.2-.4l.2-1.5c0-.2.1-.5.1-.7v-.7c0-.8-.1-1.5-.4-2.1-.1-.7-.5-1.2-.9-1.7zM65.2 21c0 .2 0 .4-.1.5h-3.7c.1-.5.2-.9.4-1.3s.4-.7.7-.9c.2-.2.5-.3.8-.3h.4c.6 0 1 .1 1.2.4.2.3.4.6.4 1.1 0 .2 0 .4-.1.5zm18.6.4v-.7c0-.8-.1-1.5-.4-2.1-.2-.7-.6-1.2-1-1.7s-1-.9-1.7-1.2c-.7-.3-1.5-.4-2.4-.4h-1c-.7.1-1.3.2-1.9.3-.9.3-1.7.6-2.3 1.2-.7.5-1.2 1.3-1.7 2.1-.4.9-.8 1.9-1 3.2l-.3 1.7c0 .2-.1.4-.1.7v.6c0 .7.1 1.4.3 1.9.2.6.5 1.1.9 1.5.4.4.8.8 1.3 1.1.5.3 1 .5 1.5.6.5.1 1.1.2 1.7.2h2l1.8-.3c.6-.1 1.2-.3 1.7-.4.2-.1.4-.1.4-.3.1-.1.1-.3.2-.5l.4-2.3v-.1c0-.1 0-.2-.1-.2-.1-.1-.2-.1-.3-.1h-.1c-.2 0-.4 0-.7.1-.3 0-.6 0-1 .1h-3.1c-.4 0-.8 0-1.1-.1-.3-.1-.6-.2-.7-.4-.2-.2-.3-.5-.3-.9v-.4c0-.1 0-.3.1-.4h7.8c.2 0 .3-.1.4-.2.1-.1.2-.2.2-.4l.2-1.5c.2-.2.3-.4.3-.7zm-4.6-.4c0 .2 0 .4-.1.5h-3.7c.1-.5.2-.9.4-1.3s.4-.7.7-.9c.2-.2.5-.3.8-.3h.4c.6 0 1 .1 1.2.4.2.3.4.6.4 1.1-.1.2-.1.4-.1.5zm12.3-9.9c0-.2 0-.3-.1-.3-.1-.1-.2-.1-.3-.1h-3.8c-.1 0-.3.1-.4.1-.1.1-.2.2-.2.4l-3 18.5v.1c0 .1 0 .2.1.3.1.1.2.1.3.1h3.8c.1 0 .3-.1.4-.2.1-.1.2-.2.2-.4l3-18.5zm25.5 5.5c-.3-.4-.7-.7-1.3-.9-.5-.2-1.1-.3-1.9-.3-.3 0-.6 0-1.1.1-.4.1-.9.2-1.4.4-.5.2-1.1.5-1.6.9l.3-.8v-.1c0-.1 0-.2-.1-.3-.1-.1-.2-.1-.3-.1h-3.5c-.1 0-.3.1-.4.2-.1.1-.2.2-.2.4l-2.2 13.7v.1c0 .2.1.3.2.3.1.1.2.1.4.1h3.6c.2 0 .3-.1.5-.2.1-.1.2-.2.2-.4l1.6-9.8.6-.3c.2-.1.5-.2.8-.2.3-.1.5-.1.8-.1.3 0 .5 0 .7.1.2.1.3.2.4.3.1.1.1.3.1.6v.6c0 .2-.1.4-.1.6l-1.3 8.1v.1c0 .1 0 .2.1.3.1.1.2.1.3.1h3.8c.2 0 .3-.1.4-.2.1-.1.2-.2.2-.4l1.3-7.9c.1-.4.1-.7.1-1v-1c0-.6-.1-1.2-.2-1.8-.2-.4-.4-.8-.8-1.2zm12.9-.4v-.1c0-.1 0-.2-.1-.3-.1-.1-.2-.1-.3-.1-.3-.1-.8-.2-1.4-.3-.6-.1-1.3-.1-2-.1-1.3 0-2.4.2-3.4.7-1 .5-1.8 1.2-2.4 2.2-.6 1-1.1 2.3-1.3 3.8l-.3 1.9c0 .3-.1.5-.1.7v.7c0 .7.1 1.4.4 2.1.2.6.5 1.2 1 1.6.4.5 1 .8 1.6 1.1.6.3 1.3.4 2.2.4.7 0 1.4 0 2-.1.6-.1 1.1-.2 1.5-.3.2 0 .3-.1.4-.2.1-.1.2-.2.2-.4l.5-2.8v-.1c0-.1 0-.2-.1-.3-.1-.1-.2-.1-.3-.1-.3 0-.6 0-.9.1-.3 0-.6 0-.9.1h-1.1c-.3 0-.5 0-.7-.1-.2-.1-.4-.2-.5-.4-.1-.2-.2-.5-.2-.9v-.5c0-.2 0-.4.1-.6l.3-1.9c.1-.5.2-.9.3-1.3.1-.3.3-.6.5-.8.2-.2.4-.3.6-.4.2-.1.5-.1.8-.1h1.1c.3 0 .6 0 .9.1.3 0 .6.1.9.1.1 0 .3-.1.4-.1.1-.1.2-.2.2-.3l.1-3zm13 5.2v-.7c0-.8-.1-1.5-.4-2.1-.2-.7-.6-1.2-1-1.7-.5-.5-1-.9-1.7-1.2-.7-.3-1.5-.4-2.4-.4h-1c-.7.1-1.3.2-1.9.3-.9.3-1.7.6-2.3 1.2-.7.5-1.2 1.3-1.7 2.1-.4.9-.8 1.9-1 3.2l-.3 1.7c0 .2-.1.4-.1.7v.6c0 .7.1 1.4.3 1.9.2.6.5 1.1.9 1.5.4.4.8.8 1.3 1.1.5.3 1 .5 1.5.6.5.1 1.1.2 1.7.2h2l1.8-.3c.6-.1 1.2-.3 1.7-.4.2-.1.4-.1.4-.3.1-.1.1-.3.2-.5l.4-2.3v-.1c0-.1 0-.2-.1-.2-.1-.1-.2-.1-.3-.1h-.1c-.2 0-.4 0-.8.1-.3 0-.6 0-1 .1h-3.1c-.4 0-.8 0-1.1-.1-.3-.1-.6-.2-.7-.4-.2-.2-.3-.5-.3-.9v-.4c0-.1 0-.3.1-.4h7.8c.2 0 .3-.1.4-.2.1-.1.2-.2.2-.4l.2-1.5c.4-.2.4-.4.4-.7zm-4.6-.4c0 .2 0 .4-.1.5h-3.7c.1-.5.2-.9.4-1.3s.4-.7.7-.9c.2-.2.5-.3.8-.3h.4c.6 0 1 .1 1.2.4.2.3.4.6.4 1.1 0 .2 0 .4-.1.5zm5.9-.6-1.5 9.3v.1c0 .1.1.2.1.3.1.1.2.1.3.1h3.8c.2 0 .3-.1.4-.2.1-.1.2-.2.2-.4l2.3-14.2-5.6 5zm-40.6-2.5c-.2-.7-.5-1.3-1-1.7-.5-.4-1.1-.7-1.9-.9-.7-.2-1.6-.3-2.5-.3-.4 0-.8 0-1.3.1h-.2c-.4 0-.8.1-1.1.1-.4.1-.8.1-1.2.2-.4.1-.7.1-.9.2-.2 0-.3.1-.4.2-.1.1-.2.2-.2.4l-.4 2.5c0 .2 0 .3.1.4.1.1.2.1.3.1h.1c.4 0 .8-.1 1.3-.1s1 0 1.5-.1h1.6c.3 0 .6 0 .8.1.2.1.4.2.5.4.1.2.1.5.1.9l-.1.7h-2c-1 0-2 .2-2.8.4-1 .3-1.8.7-2.4 1.3-.6.6-1 1.4-1.2 2.4v.3c-.1.9-.1 1.6 0 2.2.2.6.4 1.1.8 1.4.4.4.8.6 1.3.8.5.2 1 .2 1.5.2s.9-.1 1.4-.2c.5-.1.9-.3 1.3-.5.1 0 .1-.1.2-.1.3-.2.7-.4 1-.6l-.1.5c0 .1 0 .3.1.4-.1.4 0 .4.2.4h3.5c.1 0 .3-.1.4-.1.1-.1.2-.2.2-.4l1.5-9c.2-1 .2-1.9 0-2.6zm-5.7 8.5c-.2.1-.5.2-.8.3-.1 0-.3.1-.4.1h-.5c-.2 0-.5 0-.6-.1-.2-.1-.3-.2-.4-.3-.2-.3-.2-.5-.2-.8v-.3c.1-.5.3-.9.6-1.1.2-.2.6-.3 1-.3h1.6l-.3 2.5z"/><path fill-rule="evenodd" clip-rule="evenodd" fill="#0093D0" d="M35.5 5 54.7.6H32.3M12.4 40.8l10.3-10.1-6.2-6.7"/><path fill-rule="evenodd" clip-rule="evenodd" fill="#B4D8EF" d="M33.8 5.3 30.5.8l-5.4 4"/><path fill-rule="evenodd" clip-rule="evenodd" fill="#0093D0" d="M20.8 4.6 8.8 0l1.9 4.1M0 5l15.2 15.4 7.5-14.2"/><path fill-rule="evenodd" clip-rule="evenodd" fill="#6DBCE3" d="m34.2 6.8-9.9-.5-8 15.2 7.4 8.1 8-7.9"/><path fill-rule="evenodd" clip-rule="evenodd" fill="#0093D0" d="m150.6 20.5.8-5h8.6"/></svg>
